<svg xmlns="http://www.w3.org/2000/svg" viewBox="0 0 296.47 296.47"><defs><style>.cls-1{fill:#fff;}.cls-2{fill:#fff;}.cls-3{fill:#8ba574;}</style></defs><g id="Logo_color_square" data-name="Logo color square"><g id="Bru-7" data-name="Bru"><path id="U" class="cls-1" d="M239.1,254c0,5,0,10,0,15a34.75,34.75,0,0,1-1.83,11.39c-2.62,7.48-7.69,12.44-15.32,14.62a34,34,0,0,1-19.5-.1c-7.79-2.33-12.8-7.58-15.26-15.29a35.19,35.19,0,0,1-1.54-9.11c0-1,0-2,0-2.93V237.87c0-.41,0-.83,0-1.24a3.36,3.36,0,0,1,3.27-3.25c1.6,0,3.2,0,4.79,0a3.29,3.29,0,0,1,3.29,3.07,12.67,12.67,0,0,1,0,1.38q0,14.84,0,29.68a32,32,0,0,0,.7,7.36,17.83,17.83,0,0,0,1.5,4.2,11.94,11.94,0,0,0,7.49,6.25,20.38,20.38,0,0,0,11.43.05,11.89,11.89,0,0,0,7.75-6.58,19,19,0,0,0,1.79-6.52c.18-1.84.27-3.7.28-5.55,0-9.63,0-19.26,0-28.9,0-.41,0-.82,0-1.23a3.29,3.29,0,0,1,3.13-3.21c1.64,0,3.3-.06,4.94,0a3.26,3.26,0,0,1,3.07,3c0,.41,0,.82,0,1.23Z"/><path id="R" class="cls-1" d="M133.78,278.34c0,.67-.05,1.17-.05,1.68,0,4.17,0,8.34,0,12.51,0,.41,0,.83,0,1.24a2.63,2.63,0,0,1-2.55,2.59h-5.72a3.94,3.94,0,0,1-.77-.07,2.57,2.57,0,0,1-2.14-2,6.75,6.75,0,0,1-.16-1.68q0-28.44,0-56.87c0-.41,0-.81,0-1.3.36,0,.66-.09,1-.09,8.39,0,16.79,0,25.19,0a32.49,32.49,0,0,1,10.91,1.86,22.07,22.07,0,0,1,7.66,4.51,19.47,19.47,0,0,1,6.12,11.83,24.42,24.42,0,0,1-.39,9.67A19,19,0,0,1,163,274.88c-.72.39-1.47.73-2.22,1.09,0,.58.4.93.68,1.34l10.25,14.88a9.75,9.75,0,0,1,.76,1.17,2,2,0,0,1-1.6,3,7.74,7.74,0,0,1-1.08,0c-1.49,0-3-.08-4.48,0a4.77,4.77,0,0,1-4.64-2.41c-3.19-4.8-6.5-9.52-9.77-14.27-.32-.47-.65-.92-1-1.38Zm0-9.53h12.95c.87,0,1.75,0,2.62-.08a17.45,17.45,0,0,0,6.81-1.8,10.28,10.28,0,0,0,5.43-6.75,14.43,14.43,0,0,0,.09-7.18,10.28,10.28,0,0,0-5.7-7.08,15.11,15.11,0,0,0-1.72-.7,20.07,20.07,0,0,0-6.82-1.07c-4.27-.06-8.54,0-12.82,0a3.61,3.61,0,0,0-.84.18Z"/><path id="B" class="cls-2" d="M99.52,264.12c1,.47,1.83.8,2.6,1.2a14.66,14.66,0,0,1,8,11.91,18,18,0,0,1-.32,6.45,13.88,13.88,0,0,1-5.46,8.17,21.76,21.76,0,0,1-7.86,3.46,38.68,38.68,0,0,1-9.34,1.05q-15.15,0-30.3,0c-.2,0-.41,0-.69-.05a8.11,8.11,0,0,1-.14-.86c0-.36,0-.72,0-1.08V234.5c.37,0,.67-.11,1-.11q14.37,0,28.75,0a32.55,32.55,0,0,1,10,1.53,19,19,0,0,1,6.25,3.3,13.69,13.69,0,0,1,5.09,10.19,17.36,17.36,0,0,1-.52,5.51,14.47,14.47,0,0,1-5.81,8.3Zm-32,23.13c.24,0,.45.07.65.07,6.33,0,12.67,0,19,0a23.9,23.9,0,0,0,3.68-.37A12.49,12.49,0,0,0,95,285.45a7.1,7.1,0,0,0,3.56-4.82,10.37,10.37,0,0,0-.11-4.89,7,7,0,0,0-2.91-4,10.83,10.83,0,0,0-3.07-1.41,21.77,21.77,0,0,0-6.26-.83c-6,0-11.95,0-17.92,0a8.61,8.61,0,0,0-1,.13c0,5.75,0,11.41,0,17.06A3.64,3.64,0,0,0,67.49,287.25Zm0-43.84c-.23,1.46-.23,15.74,0,17,.38,0,.79.06,1.19.06H83.39c.88,0,1.75,0,2.62-.1a14.37,14.37,0,0,0,5.63-1.5,7.09,7.09,0,0,0,3.89-5.08,9.33,9.33,0,0,0-.06-3.83,7,7,0,0,0-3.33-4.62A10.86,10.86,0,0,0,88.86,244a22.47,22.47,0,0,0-5.35-.61h-16Z"/></g><path id="Logo" class="cls-2" d="M56.1.15a5.71,5.71,0,0,1,.67-.09c.47,0,.93,0,1.4,0h87.65c1.85,0,3.71,0,5.56,0a135.28,135.28,0,0,1,17,1.13A115.14,115.14,0,0,1,183.65,4a76.17,76.17,0,0,1,20.45,8.53,49.11,49.11,0,0,1,23,32.14,62.29,62.29,0,0,1,1.32,16.12,58.69,58.69,0,0,1-1.9,13.11,47.8,47.8,0,0,1-13.87,23.14,54.61,54.61,0,0,1-7.64,6,11,11,0,0,1-5.35,1.84,6,6,0,0,1-5.87-3,6.66,6.66,0,0,1-.17-7,5,5,0,0,1,1.72-1.74,34.43,34.43,0,0,0,10.75-11.54,40.83,40.83,0,0,0,4.58-12.4,49.48,49.48,0,0,0,.89-14c-.8-9.82-4.32-18.48-11.37-25.54A37.34,37.34,0,0,0,194,24.76a57.3,57.3,0,0,0-17.23-7.41,96.1,96.1,0,0,0-15.37-2.55c-4.37-.37-8.74-.46-13.12-.46-15.92,0-31.85,0-47.77,0H73.78c-.35,0-.7,0-1.16.07,0,.5-.09.95-.09,1.4l0,13.29q0,38.42,0,76.83,0,47.07,0,94.15c0,3.55,0,7.11,0,10.66V212c.47,0,.86.1,1.26.1,15.87,0,31.74-.08,47.61-.07,11.7,0,23.4.13,35.09.16q7.2,0,14.36-.65a135.39,135.39,0,0,0,15.12-2.23,67.2,67.2,0,0,0,16-5.54A39.32,39.32,0,0,0,222.92,176c.37-2,.52-4.08.7-6.13.14-1.7.21-3.4.25-5.1a44.47,44.47,0,0,0-4-19.51A34.71,34.71,0,0,0,209,131.65a51.71,51.71,0,0,0-20.15-9.37,46.35,46.35,0,0,0-12.59-1,31.34,31.34,0,0,0-4.86.86A59.72,59.72,0,0,0,161,125.51c-.37.16-.74.34-1.11.53-.08,0-.13.16-.22.27l1,1.14a41.83,41.83,0,0,1,10.4,21.7A41.12,41.12,0,0,1,135.83,196c-2.59.33-5.23.35-7.85.51a1.53,1.53,0,0,1-.36-.11c-7.52-14.07-9.94-28.88-5.74-44.46s13.27-27.31,26.86-35.89a4.21,4.21,0,0,0-1.51-.65c-3.6-1.25-7.22-2.44-10.79-3.74a85.63,85.63,0,0,1-14.82-6.89c-16.09-9.67-27.14-23.45-33.42-41.1a72.79,72.79,0,0,1-3.63-15.77A70.7,70.7,0,0,1,84.09,38c0-1.85.1-3.71.17-5.56,0-.82.11-1.64.18-2.54.6-.12,1.14-.23,1.68-.32a81.87,81.87,0,0,1,9.33-1.34,66.31,66.31,0,0,1,11.27.16,57,57,0,0,1,13.53,3,60,60,0,0,1,33.46,28.68,62.15,62.15,0,0,1,6.74,19.14,59.15,59.15,0,0,1-.79,23.92c-.08.35-.13.7-.21,1.13a4.14,4.14,0,0,0,.71.26c2.23.4,4.45.86,6.69,1.16,3.37.46,6.75.87,10.13,1.21a155.17,155.17,0,0,1,17.78,3.1,50.07,50.07,0,0,1,11.89,4.26c2.43,1.23,4.89,2.42,7.27,3.75,13.23,7.34,21.47,18.45,24.89,33.16a59.47,59.47,0,0,1,1.55,13.94A98.67,98.67,0,0,1,240,175a52.59,52.59,0,0,1-5.36,18.12,50.38,50.38,0,0,1-21.27,21.76,81.89,81.89,0,0,1-19.08,7.44,125.79,125.79,0,0,1-17.14,3.16,148.7,148.7,0,0,1-19.9.88q-3,0-6,0h-95a7.29,7.29,0,0,1-.15-1.06c0-2.63,0-5.26,0-7.88q0-46.38,0-92.76,0-41.89,0-83.79,0-19.47,0-38.95C56.05,1.31,56.09.76,56.1.15ZM145.83,100a4.54,4.54,0,0,0,.39-.86,42.51,42.51,0,0,0,1-7.18A46.25,46.25,0,0,0,147,84.2a53.93,53.93,0,0,0-1.27-6.66,48.58,48.58,0,0,0-4.83-11.67,45.78,45.78,0,0,0-7.48-10,50,50,0,0,0-4.65-4.07,46,46,0,0,0-16.62-8.26,51.08,51.08,0,0,0-8.51-1.42c-1.63-.14-3.29,0-4.94,0a1.39,1.39,0,0,0-.42.14c-.34.74,0,1.43.07,2.14a48,48,0,0,0,1.22,8.07,61.16,61.16,0,0,0,7.85,19.2A62.09,62.09,0,0,0,126.05,91a82.54,82.54,0,0,0,18.69,8.75C145.07,99.82,145.43,99.86,145.83,100Zm2,34.63c-13.4,12.3-17,32.53-11.3,46.83,2.6-.07,7.51-2.3,11.15-5.24a26,26,0,0,0,8.91-13.24,27,27,0,0,0-.92-17.68C154.18,141.49,150.52,136.31,147.79,134.58Z"/><path id="Letter_bottom" data-name="Letter bottom" class="cls-3" d="M147.79,134.58c2.73,1.73,6.39,6.91,7.84,10.67a27,27,0,0,1,.92,17.68,26,26,0,0,1-8.91,13.24c-3.64,2.94-8.55,5.17-11.15,5.24C130.77,167.11,134.39,146.88,147.79,134.58Z"/><path id="Letter_top" data-name="Letter top" class="cls-3" d="M145.83,100c-.4-.09-.76-.13-1.09-.24A82.54,82.54,0,0,1,126.05,91a62.09,62.09,0,0,1-18.62-19.32,61.16,61.16,0,0,1-7.85-19.2,48,48,0,0,1-1.22-8.07c0-.71-.41-1.4-.07-2.14a1.39,1.39,0,0,1,.42-.14c1.65,0,3.31-.09,4.94,0a51.08,51.08,0,0,1,8.51,1.42,46,46,0,0,1,16.62,8.26,50,50,0,0,1,4.65,4.07,45.78,45.78,0,0,1,7.48,10,48.58,48.58,0,0,1,4.83,11.67A53.93,53.93,0,0,1,147,84.2a46.25,46.25,0,0,1,.22,7.71,42.51,42.51,0,0,1-1,7.18A4.54,4.54,0,0,1,145.83,100Z"/></g></svg>