<svg width="70" height="70" viewBox="0 0 70 70" fill="none" xmlns="http://www.w3.org/2000/svg">
<path d="M70 0H0V70H70V0Z" fill="#231F20"/>
<path d="M22.1091 30.0967C22.0956 30.776 21.9554 31.4467 21.6957 32.0746C21.3746 32.8421 20.8294 33.4948 20.1313 33.9475C20.5735 34.1508 20.9803 34.4234 21.3364 34.7551C21.9684 35.3474 22.4231 36.1037 22.6497 36.9396C22.7555 37.3164 22.81 37.7057 22.8119 38.0971C22.8094 38.796 22.7022 39.4905 22.4939 40.1576C22.2881 40.8333 21.9327 41.4539 21.4541 41.9733C20.904 42.5492 20.2328 42.9956 19.489 43.2802C18.5134 43.6384 17.4784 43.8068 16.4395 43.7762H8.80804V24.9232H16.3569C17.1306 24.9163 17.8981 25.0633 18.6145 25.3557C19.2875 25.6248 19.9068 26.0125 20.4429 26.5004C20.9571 26.9657 21.3733 27.5289 21.6671 28.1571C21.9573 28.7625 22.1084 29.4253 22.1091 30.0967ZM12.5475 32.2781H15.9403C16.508 32.3032 17.0677 32.1375 17.5302 31.8075C17.7245 31.6627 17.8811 31.4732 17.9869 31.2552C18.0926 31.0371 18.1443 30.7969 18.1376 30.5546C18.1393 30.3013 18.0859 30.0506 17.981 29.82C17.8761 29.5893 17.7223 29.3843 17.5302 29.2191C17.089 28.8412 16.5208 28.6446 15.9403 28.669H12.5475V32.2781ZM15.9689 40.0368C16.9928 40.0368 17.7284 39.8439 18.1757 39.458C18.3839 39.2971 18.5527 39.091 18.6695 38.8552C18.7863 38.6194 18.8479 38.3602 18.8498 38.0971C18.8505 37.8306 18.8053 37.566 18.7163 37.3149C18.6241 37.0591 18.4662 36.832 18.2584 36.6566C17.9977 36.4422 17.6941 36.286 17.368 36.1988C16.913 36.0712 16.4414 36.0122 15.9689 36.0239H12.5475V40.0368H15.9689Z" fill="white"/>
<path d="M42.9081 43.7794H38.326L33.2097 36.5899H30.9457V43.7794H27.2285V24.9233H34.86C35.6256 24.9206 36.3835 25.0765 37.0859 25.3811C37.7736 25.6797 38.3992 26.1047 38.9302 26.634C39.4625 27.1665 39.8935 27.7914 40.2021 28.4783C40.5185 29.1908 40.679 29.9627 40.6727 30.7423C40.6862 31.8691 40.3677 32.975 39.7569 33.9221C39.1785 34.8373 38.3451 35.5635 37.3593 36.0112L42.9081 43.7794ZM34.1509 32.8696C35.1049 32.8696 35.8055 32.6576 36.2528 32.2336C36.4651 32.0469 36.6351 31.817 36.7514 31.5592C36.8677 31.3015 36.9275 31.0219 36.9269 30.7391C36.928 30.4601 36.868 30.1842 36.751 29.931C36.6339 29.6777 36.4628 29.4532 36.2496 29.2732C35.8002 28.8683 35.0996 28.6669 34.1477 28.6691H30.9457V32.8696H34.1509Z" fill="white"/>
<path d="M53.7099 43.9702C52.6953 43.9823 51.6882 43.7943 50.7463 43.4169C49.8825 43.0727 49.0988 42.5542 48.4442 41.8938C47.7941 41.2309 47.2846 40.4435 46.9465 39.5789C46.5793 38.6345 46.3969 37.6285 46.4091 36.6153V24.9232H50.1263V36.1288C50.1183 36.7124 50.2185 37.2925 50.422 37.8395C50.5984 38.3194 50.8687 38.7594 51.2169 39.1337C51.5406 39.4769 51.9299 39.7515 52.3617 39.9414C52.7861 40.128 53.2447 40.2244 53.7083 40.2244C54.172 40.2244 54.6305 40.128 55.055 39.9414C55.4876 39.753 55.8772 39.4782 56.1997 39.1337C56.548 38.7594 56.8182 38.3194 56.9946 37.8395C57.1981 37.2925 57.2984 36.7124 57.2903 36.1288V24.9232H61.052V36.6153C61.0643 37.6285 60.8818 38.6345 60.5147 39.5789C60.1755 40.4461 59.6614 41.2341 59.0043 41.8938C58.3427 42.5517 57.5554 43.0697 56.6894 43.4169C55.7424 43.796 54.7298 43.9841 53.7099 43.9702Z" fill="white"/>
<path d="M53.163 22.8055C53.1643 23.1667 53.0583 23.5202 52.8585 23.8212C52.6587 24.1222 52.3741 24.3571 52.0407 24.4963C51.7073 24.6354 51.3401 24.6724 50.9857 24.6027C50.6312 24.533 50.3054 24.3597 50.0495 24.1047C49.7936 23.8497 49.6191 23.5245 49.5482 23.1703C49.4772 22.816 49.513 22.4487 49.651 22.1148C49.7889 21.781 50.0229 21.4955 50.3231 21.2947C50.6234 21.0938 50.9766 20.9866 51.3378 20.9866C51.8208 20.9866 52.2841 21.1781 52.6262 21.519C52.9683 21.8599 53.1613 22.3225 53.163 22.8055Z" fill="white"/>
<path d="M57.9645 22.8055C57.9664 23.1676 57.8607 23.5222 57.6608 23.8242C57.4609 24.1262 57.1758 24.362 56.8417 24.5018C56.5076 24.6415 56.1395 24.6789 55.7841 24.6092C55.4287 24.5395 55.1021 24.3658 54.8455 24.1101C54.589 23.8545 54.4142 23.5284 54.3432 23.1733C54.2722 22.8181 54.3083 22.4499 54.4469 22.1153C54.5855 21.7807 54.8203 21.4948 55.1216 21.2939C55.4229 21.093 55.7771 20.986 56.1393 20.9866C56.6223 20.9866 57.0855 21.1781 57.4276 21.519C57.7698 21.8599 57.9628 22.3225 57.9645 22.8055Z" fill="white"/>
</svg>