<svg width="24" height="24" viewBox="0 0 24 24" fill="none" xmlns="http://www.w3.org/2000/svg">
<path d="M20 11.5C20 11.5 20.656 10.5782 22.5 11.5C23.5 12 20.5 15.5 20 15.5C19.5 15.5 18.5 16 18.5 16" stroke="#B0B0B0" stroke-width="1.5" stroke-linecap="round" stroke-linejoin="round"/>
<path d="M20.75 9C20.75 8.58579 20.4142 8.25 20 8.25C19.5858 8.25 19.25 8.58579 19.25 9H20.75ZM16.0967 19L15.6062 18.4327V18.4327L16.0967 19ZM7.90326 19L8.39381 18.4327L8.39381 18.4327L7.90326 19ZM4.75 9C4.75 8.58579 4.41421 8.25 4 8.25C3.58579 8.25 3.25 8.58579 3.25 9H4.75ZM15 20.0935L14.4662 19.5666C14.3226 19.7121 14.2446 19.91 14.2503 20.1143C14.256 20.3187 14.3448 20.5118 14.4963 20.6491L15 20.0935ZM9 20.0935L9.47782 20.6716C9.63999 20.5375 9.7384 20.3415 9.74904 20.1314C9.75968 19.9213 9.68158 19.7164 9.5338 19.5666L9 20.0935ZM19.25 9C19.25 14.0385 17.4106 16.8724 15.6062 18.4327L16.5873 19.5673C18.7355 17.7099 20.75 14.455 20.75 9H19.25ZM8.39381 18.4327C6.58936 16.8724 4.75 14.0385 4.75 9H3.25C3.25 14.455 5.26455 17.7099 7.41271 19.5673L8.39381 18.4327ZM12 20.25H9V21.75H12V20.25ZM15 20.25H12V21.75H15V20.25ZM15.6062 18.4327C15.3347 18.6674 14.8613 19.1663 14.4662 19.5666L15.5338 20.6203C15.9848 20.1634 16.3756 19.7504 16.5873 19.5673L15.6062 18.4327ZM14.4963 20.6491C14.5999 20.7431 14.6625 20.8118 14.698 20.8569C14.7353 20.9041 14.7301 20.9095 14.718 20.8764C14.7042 20.839 14.6791 20.7439 14.7071 20.6171C14.736 20.4858 14.8067 20.3896 14.8713 20.331C14.9289 20.2788 14.9786 20.2583 14.9921 20.2531C15.0081 20.2469 15.0141 20.2465 15.0068 20.2479C15.001 20.2489 14.9941 20.2497 14.9888 20.25C14.9867 20.2502 14.9861 20.2502 14.9876 20.2501C14.9883 20.2501 14.9897 20.2501 14.9917 20.2501C14.9927 20.25 14.9939 20.25 14.9953 20.25C14.996 20.25 14.9967 20.25 14.9975 20.25C14.9979 20.25 14.9983 20.25 14.9987 20.25C14.9989 20.25 14.9992 20.25 14.9993 20.25C14.9997 20.25 15 20.25 15 21C15 21.75 15.0003 21.75 15.0007 21.75C15.0008 21.75 15.0011 21.75 15.0014 21.75C15.0019 21.75 15.0024 21.75 15.0029 21.75C15.0039 21.75 15.005 21.75 15.0062 21.75C15.0085 21.75 15.0111 21.7499 15.014 21.7499C15.0197 21.7498 15.0266 21.7497 15.0344 21.7494C15.05 21.7489 15.0699 21.748 15.0932 21.7464C15.1387 21.7432 15.2021 21.7369 15.2744 21.7238C15.3876 21.7033 15.6554 21.6448 15.8787 21.4423C16.0058 21.3271 16.1233 21.1601 16.1718 20.9403C16.2193 20.7249 16.1864 20.5236 16.1258 20.3587C16.0148 20.0569 15.7786 19.787 15.5037 19.5378L14.4963 20.6491ZM9 21C9 20.25 9.0003 20.25 9.00059 20.25C9.00069 20.25 9.00098 20.25 9.00117 20.25C9.00154 20.25 9.0019 20.25 9.00225 20.25C9.00294 20.25 9.00358 20.25 9.00417 20.25C9.00534 20.25 9.00629 20.25 9.00705 20.25C9.00855 20.2501 9.00928 20.2501 9.00932 20.2501C9.00934 20.2501 9.00688 20.25 9.00261 20.2497C8.99315 20.2491 8.98038 20.2479 8.96809 20.2459C8.95427 20.2436 8.95266 20.2422 8.96125 20.2452C8.96635 20.247 9.01078 20.2625 9.06655 20.3086C9.12902 20.3602 9.21181 20.4569 9.247 20.6023C9.2816 20.7453 9.2505 20.8544 9.23288 20.8981C9.21757 20.936 9.21036 20.9319 9.25258 20.8831C9.29247 20.8369 9.36243 20.7669 9.47782 20.6716L8.52218 19.5154C8.22636 19.7599 7.96606 20.0288 7.84174 20.3371C7.77271 20.5082 7.73305 20.7235 7.78907 20.9551C7.84568 21.189 7.97988 21.3565 8.1109 21.4648C8.33965 21.6538 8.60994 21.707 8.72345 21.7258C8.79684 21.7379 8.86119 21.7438 8.90743 21.7467C8.931 21.7482 8.95104 21.749 8.96658 21.7495C8.97438 21.7497 8.98114 21.7498 8.98673 21.7499C8.98952 21.7499 8.99203 21.75 8.99425 21.75C8.99536 21.75 8.99639 21.75 8.99735 21.75C8.99783 21.75 8.99829 21.75 8.99873 21.75C8.99895 21.75 8.99927 21.75 8.99938 21.75C8.99969 21.75 9 21.75 9 21ZM9.5338 19.5666C9.1387 19.1663 8.6653 18.6674 8.39381 18.4327L7.41271 19.5673C7.62441 19.7504 8.0152 20.1634 8.4662 20.6203L9.5338 19.5666Z" fill="#B0B0B0"/>
<path d="M10.6502 11C10.1807 8.1579 5.95471 5.78947 9.24154 2C8.72358 7.21053 12.0588 6.26316 10.6502 11Z" fill="#71883A"/>
<path d="M14.6502 11C14.1807 8.1579 9.95471 5.78947 13.2415 2C12.7236 7.21053 16.0588 6.26316 14.6502 11Z" fill="#71883A"/>
</svg>