<svg width="24" height="24" viewBox="0 0 24 24" fill="none" xmlns="http://www.w3.org/2000/svg">
<path fill-rule="evenodd" clip-rule="evenodd" d="M5.10357 10.261L6.51024 7.739C6.69184 7.41342 7.06795 7.26265 7.41402 7.37671L8.83372 7.8446C9.02317 7.70041 9.21973 7.56813 9.42226 7.44809C9.6152 7.33324 9.81469 7.22885 10.02 7.13568L10.3384 5.62904C10.416 5.26178 10.7302 5 11.0934 5H13.9067C14.2699 5 14.5841 5.26178 14.6617 5.62904L14.9801 7.13568C15.198 7.23454 15.4093 7.34603 15.6132 7.46926C15.8032 7.58363 15.9879 7.70883 16.1663 7.8446L17.586 7.37671C17.9321 7.26265 18.3082 7.41342 18.4898 7.739L19.8964 10.261C20.078 10.5866 20.0161 10.9991 19.7476 11.2524L18.6463 12.2911C18.6716 12.5271 18.684 12.7634 18.6838 12.9991C18.6841 13.2354 18.6717 13.4724 18.6463 13.7089L19.7476 14.7477C20.0161 15.0009 20.078 15.4134 19.8964 15.739L18.4898 18.261C18.3082 18.5866 17.9321 18.7374 17.586 18.6233L16.1663 18.1554C15.9857 18.2928 15.7987 18.4194 15.6062 18.535C15.4045 18.6565 15.1955 18.7666 14.9801 18.8643L14.6617 20.371C14.5841 20.7382 14.2699 21 13.9067 21H11.0934C10.7302 21 10.416 20.7382 10.3384 20.371L10.02 18.8643C9.81708 18.7722 9.61984 18.6692 9.429 18.5559C9.22409 18.4348 9.02527 18.3012 8.83372 18.1554L7.41402 18.6233C7.06795 18.7374 6.69184 18.5866 6.51024 18.261L5.10357 15.739C4.92197 15.4134 4.98389 15.0009 5.25235 14.7477L6.35366 13.7089C6.32835 13.4726 6.31594 13.236 6.31616 13C6.31594 12.764 6.32835 12.5274 6.35366 12.2911L5.25235 11.2524C4.98389 10.9991 4.92197 10.5866 5.10357 10.261ZM13.2847 6.6L13.6384 8.27381L14.3595 8.60105C14.5226 8.67506 14.6809 8.75857 14.8338 8.85096L14.8363 8.85246C14.9787 8.9382 15.1171 9.032 15.2506 9.13363L15.8849 9.61647L17.4622 9.09665L18.2468 10.5034L17.0233 11.6574L17.11 12.4674C17.129 12.6441 17.1383 12.8212 17.1381 12.9978L17.1381 13.0008C17.1383 13.178 17.129 13.3555 17.1101 13.5326L17.0233 14.3427L18.2468 15.4967L17.4622 16.9034L15.8849 16.3836L15.2506 16.8664C15.1154 16.9693 14.9753 17.0641 14.831 17.1507L14.8285 17.1522C14.6773 17.2433 14.5208 17.3258 14.3595 17.3989L13.6384 17.7262L13.2847 19.4H11.7155L11.3617 17.7262L10.6406 17.3989C10.4887 17.33 10.341 17.2528 10.1979 17.1679L10.1954 17.1664C10.0417 17.0756 9.89279 16.9755 9.74941 16.8664L9.11506 16.3836L7.53783 16.9034L6.75322 15.4967L7.97673 14.3427L7.88995 13.5326C7.871 13.3557 7.8617 13.1784 7.86186 13.0015L7.86186 12.9985C7.8617 12.8216 7.871 12.6443 7.88995 12.4674L7.97673 11.6574L6.75322 10.5034L7.53783 9.09665L9.11506 9.61647L9.74941 9.13363C9.89122 9.02569 10.0385 8.92659 10.1903 8.83659L10.1928 8.83509C10.3375 8.74899 10.4869 8.6708 10.6406 8.60105L11.3617 8.27381L11.7155 6.6H13.2847Z" fill="#B0B0B0"/>
<path fill-rule="evenodd" clip-rule="evenodd" d="M15.5 13C15.5 14.6569 14.1569 16 12.5 16C10.8431 16 9.5 14.6569 9.5 13C9.5 11.3431 10.8431 10 12.5 10C14.1569 10 15.5 11.3431 15.5 13ZM14 13C14 13.8284 13.3284 14.5 12.5 14.5C11.6716 14.5 11 13.8284 11 13C11 12.1716 11.6716 11.5 12.5 11.5C13.3284 11.5 14 12.1716 14 13Z" fill="#71883A"/>
</svg>